<?xml version="1.0" encoding="UTF-8" standalone="no" ?>
<!DOCTYPE svg PUBLIC "-//W3C//DTD SVG 1.1//EN" "http://www.w3.org/Graphics/SVG/1.1/DTD/svg11.dtd">
<svg xmlns="http://www.w3.org/2000/svg" xmlns:xlink="http://www.w3.org/1999/xlink" version="1.1" width="500" height="500" viewBox="0 0 500 500" xml:space="preserve">
<desc>Created with Fabric.js 4.6.0</desc>
<defs>
</defs>
<g transform="matrix(2.24 0 0 1.99 144.61 37.81)" id="jFDm48E4JvUW5R-CVTW3R"  >
<path style="stroke: rgb(241,250,238); stroke-width: 5; stroke-dasharray: none; stroke-linecap: butt; stroke-dashoffset: 0; stroke-linejoin: miter; stroke-miterlimit: 4; fill: rgb(255,255,255); fill-opacity: 0; fill-rule: nonzero; opacity: 1;" vector-effect="non-scaling-stroke"  transform=" translate(0, 0)" d="M -45.87697 0 L 45.87697 0" stroke-linecap="round" />
</g>
<g transform="matrix(2.27 0 0 2 141.52 248.84)" id="yVSfqhql4t8-UUL2fmkLn"  >
<path style="stroke: rgb(241,250,238); stroke-width: 5; stroke-dasharray: none; stroke-linecap: butt; stroke-dashoffset: 0; stroke-linejoin: miter; stroke-miterlimit: 4; fill: none; fill-rule: nonzero; opacity: 1;" vector-effect="non-scaling-stroke"  transform=" translate(0, 0)" d="M 0 105.74975 L 0 -105.74975" stroke-linecap="round" />
</g>
<g transform="matrix(2.79 0 0 2.02 141.52 459.87)" id="LiWbRMUDcvXpPAg_TeZAe"  >
<path style="stroke: rgb(241,250,238); stroke-width: 5; stroke-dasharray: none; stroke-linecap: butt; stroke-dashoffset: 0; stroke-linejoin: miter; stroke-miterlimit: 4; fill: rgb(255,255,255); fill-opacity: 0; fill-rule: nonzero; opacity: 1;" vector-effect="non-scaling-stroke"  transform=" translate(0, 0)" d="M -9.80769 0 L 9.80769 0" stroke-linecap="round" />
</g>
<g transform="matrix(2.27 0 0 2.01 367.43 246.23)" id="O-xKae6s7uXoR70Y9_B4K"  >
<path style="stroke: rgb(241,250,238); stroke-width: 5; stroke-dasharray: none; stroke-linecap: butt; stroke-dashoffset: 0; stroke-linejoin: miter; stroke-miterlimit: 4; fill: none; fill-rule: nonzero; opacity: 1;" vector-effect="non-scaling-stroke"  transform=" translate(0, 0)" d="M 39.20705 -91.48098 L 39.20705 -100.0442 L 39.20705 -105.74975 L -39.20705 -105.74975 L -39.20705 40.906980000000004 L 39.20705 79.23297 L 39.20705 105.74974 L -39.20705 105.74974 L -39.20705 93.46356" stroke-linecap="round" />
</g>
<g transform="matrix(2.27 0 0 2.01 249.54 249.54)" id="WVQR5y6vkIJm0ppFqGSH1"  >
<path style="stroke: rgb(241,250,238); stroke-width: 5; stroke-dasharray: none; stroke-linecap: butt; stroke-dashoffset: 0; stroke-linejoin: miter; stroke-miterlimit: 4; fill: none; fill-rule: nonzero; opacity: 1;" vector-effect="non-scaling-stroke"  transform=" translate(0, 0)" d="M -108.80829 -122.53886 L 108.80829 -122.53886 L 108.80829 122.53886 L -108.80829 122.53886 z" stroke-linecap="round" />
</g>
</svg>